Coordinates
version=1
nRows=17
nColumns=33
inDegrees=yes

Units are S.I. units (second, meters, Newtons, ...)
Angles are in degrees.

endheader
time	ground_thorax_rot_x	ground_thorax_rot_y	ground_thorax_rot_z	ground_thorax_tx	ground_thorax_ty	ground_thorax_tz	clav_prot_r	clav_elev_r	scapula_abduction_r	scapula_elevation_r	scapula_upward_rot_r	scapula_winging_r	shoulder_elv_r	plane_of_elev_r	axial_rot_r	elbow_flexion_r	pro_sup_r	wrist_flex_r	wrist_dev_r	clav_prot_l	clav_elev_l	scapula_abduction_l	scapula_elevation_l	scapula_upward_rot_l	scapula_winging_l	shoulder_elv_l	plane_of_elev_l	axial_rot_l	elbow_flexion_l	pro_sup_l	wrist_flex_l	wrist_dev_l	
3.1500	40.764878	5.063090	13.029437	-199.000033	840.608551	-13.395126	3.855208	45.082335	45.006666	44.720650	4.526849	966.711481	-2818.167306	16.504845	-180.000000	1446.789730	-77.653152	18.292517	10.002144	11.663613	-45.000000	-33.940046	45.000000	-45.000000	-3143.656538	-3165.888763	13.475937	-68.156246	10.843849	35.167024	9.138928	-22.245813	
3.1600	40.780113	5.072896	12.962290	-199.154475	841.408619	-13.277706	3.933085	44.808668	44.994970	44.746566	4.763643	966.672755	-2818.107304	16.489807	-180.000000	1446.702120	-76.469273	18.554245	9.920231	11.562265	-45.000000	-33.995464	45.000000	-45.000000	-3143.559426	-3165.861105	13.541044	-68.384579	10.923136	35.657337	8.910949	-22.220963	
3.1700	40.784520	5.047817	12.894800	-199.270628	842.185070	-13.156570	4.098236	44.453428	44.992836	44.755017	5.033709	966.668914	-2818.029692	16.453979	-180.000000	1446.597828	-75.332154	18.928728	9.888294	11.405689	-45.000000	-34.048198	45.000000	-45.000000	-3143.420674	-3165.853062	13.638679	-68.625336	10.977690	36.137732	8.624476	-22.195276	
3.1800	40.792763	5.070050	12.859854	-199.302602	842.906988	-13.026490	4.111284	44.336928	44.991118	44.799261	5.235944	966.644930	-2817.977346	16.428096	-180.000000	1446.524252	-74.314323	19.128486	9.819378	11.375161	-45.000000	-34.110737	45.000000	-45.000000	-3143.349395	-3165.829031	13.682390	-68.750177	11.037505	36.592252	8.429256	-22.166798	
3.1900	40.796620	5.100749	12.836488	-199.247949	843.577413	-12.887862	4.071399	44.306232	44.991272	44.851744	5.417327	966.620929	-2817.933620	16.407813	-180.000000	1446.467694	-73.411132	19.265361	9.749211	11.392908	-45.000000	-34.178977	45.000000	-44.999999	-3143.304262	-3165.801945	13.714348	-68.799802	11.095516	37.027036	8.263459	-22.133080	
3.2000	40.795857	5.136977	12.822791	-199.098890	844.196955	-12.740475	3.988897	44.339171	44.991632	44.907001	5.583514	966.602392	-2817.892856	16.391392	-180.000000	1446.423150	-72.620605	19.351067	9.682075	11.449337	-45.000000	-34.254585	45.000000	-44.999999	-3143.283586	-3165.775823	13.740561	-68.778344	11.149053	37.449495	8.119603	-22.093911	
3.2100	40.786848	5.160642	12.801080	-198.859969	844.776792	-12.585699	3.898420	44.373421	44.992041	44.951114	5.761750	966.580102	-2817.852778	16.390148	-180.000000	1446.393315	-71.916805	19.416563	9.623322	11.512766	-45.000000	-34.335350	45.000000	-44.999997	-3143.277335	-3165.748475	13.777143	-68.700551	11.206701	37.873167	7.979988	-22.049937	
3.2200	40.770523	5.164655	12.768664	-198.541148	845.332826	-12.425681	3.824522	44.377844	44.992525	44.979359	5.963657	966.558513	-2817.810237	16.400403	-180.000000	1446.371143	-71.255234	19.495890	9.578494	11.562512	-45.000000	-34.419065	45.000000	-44.999995	-3143.276287	-3165.722511	13.832796	-68.590504	11.269031	38.317846	7.829284	-22.005983	
3.2300	40.748185	5.151760	12.719645	-198.151823	845.881140	-12.262541	3.758028	44.370952	44.993170	44.993831	6.192656	966.518740	-2817.768969	16.433136	-180.000000	1446.363647	-70.589985	19.572155	9.535160	11.603159	-45.000000	-34.505085	45.000000	-44.999992	-3143.290037	-3165.690607	13.903877	-68.446138	11.345054	38.801323	7.677775	-21.965289	
3.2400	40.723586	5.124016	12.658448	-197.700414	846.436828	-12.098513	3.702880	44.373984	44.994035	44.999753	6.451359	966.454370	-2817.736064	16.492497	-180.000000	1446.367665	-69.867886	19.656938	9.490839	11.634706	-45.000000	-34.587532	45.000000	-44.999985	-3143.318157	-3165.650262	13.987342	-68.282571	11.436296	39.345690	7.524990	-21.935216	
3.2500	40.696508	5.081273	12.581177	-197.194159	847.013661	-11.936005	3.655637	44.384265	44.996395	45.000000	6.755787	966.357062	-2817.708507	16.576540	-180.000000	1446.385087	-69.042014	19.750387	9.439423	11.654643	-45.000000	-34.667455	45.000000	-44.999973	-3143.359859	-3165.600134	14.082864	-68.094860	11.544783	39.966367	7.370732	-21.916831	
3.2600	40.668892	5.029348	12.496120	-196.639138	847.623643	-11.777807	3.603517	44.404013	44.998361	45.000000	7.097789	966.239888	-2817.687078	16.674456	-180.000000	1446.407853	-68.079270	19.855066	9.373608	11.673308	-45.000000	-34.747679	45.000000	-44.999952	-3143.409130	-3165.541500	14.186635	-67.887305	11.670337	40.670527	7.215085	-21.911277	
3.2700	40.640130	4.976223	12.405685	-196.039990	848.277688	-11.627134	3.540677	44.416834	45.000000	45.000000	7.470917	966.118623	-2817.658213	16.770755	-180.000000	1446.428661	-66.966444	19.968490	9.288804	11.692836	-45.000000	-34.838158	45.000000	-44.999915	-3143.462617	-3165.481103	14.298046	-67.655624	11.801687	41.453008	7.055711	-21.912015	
3.2800	40.611385	4.922389	12.310694	-195.400509	848.985600	-11.487791	3.460117	44.418596	45.000000	45.000000	7.884527	966.000005	-2817.617759	16.859959	-180.000000	1446.443364	-65.696309	20.089633	9.183084	11.715823	-45.000000	-34.940850	45.000000	-44.999847	-3143.515502	-3165.419971	14.416047	-67.401523	11.938716	42.303561	6.891329	-21.916501	
3.2900	40.581307	4.870669	12.211461	-194.723495	849.756965	-11.363940	3.356264	44.401234	45.000000	45.000000	8.337851	965.894624	-2817.554696	16.930262	-180.000000	1446.450031	-64.281098	20.214020	9.056977	11.744255	-45.000000	-35.064244	45.000000	-44.999726	-3143.565064	-3165.362334	14.539217	-67.115781	12.071690	43.199982	6.723249	-21.920311	
3.3000	40.552856	4.814291	12.096930	-194.010875	850.601580	-11.259667	3.217373	44.362315	45.000000	45.000000	8.892023	965.792235	-2817.448807	16.976334	-180.000000	1446.451482	-62.676461	20.334474	8.911839	11.765935	-45.000000	-35.206392	45.000000	-44.999509	-3143.611975	-3165.304924	14.673145	-66.795145	12.208104	44.141824	6.544910	-21.917690	
3.3100	40.523762	4.762084	11.975407	-193.263239	851.530076	-11.178293	3.060561	44.308115	45.000000	45.000000	9.459286	965.703860	-2817.330503	17.016142	-180.000000	1446.448810	-60.950411	20.461530	8.745216	11.802916	-45.000000	-35.371316	45.000000	-44.999120	-3143.651450	-3165.245153	14.816747	-66.439392	12.335088	45.083034	6.370405	-21.915338	
